<svg xmlns="http://www.w3.org/2000/svg" width="20" height="21" viewBox="0 0 20 21" fill="none">
    <g clip-path="url(#clip0_0_167)">
    <path d="M18.896 0.660706H1.104C0.494 0.660706 0 1.15471 0 1.76471V19.5577C0 20.1667 0.494 20.6607 1.104 20.6607H10.684V12.9157H8.076V9.89771H10.682V7.67071C10.682 5.08771 12.26 3.68071 14.565 3.68071C15.669 3.68071 16.617 3.76271 16.894 3.79971V6.49971H15.296C14.042 6.49971 13.8 7.09671 13.8 7.96971V9.89771H16.789L16.399 12.9157H13.799V20.6607H18.897C19.505 20.6607 19.999 20.1667 19.999 19.5567V1.76471C20 1.15471 19.506 0.660706 18.896 0.660706Z" fill="white"/>
    </g>
    <defs>
    <clipPath id="clip0_0_167">
        <rect width="20" height="20" fill="white" transform="translate(0 0.660706)"/>
    </clipPath>
    </defs>
</svg>