<svg xmlns="http://www.w3.org/2000/svg" width="22" height="21" viewBox="0 0 22 21" fill="none">
    <g clip-path="url(#clip0_0_169)">
    <path d="M10.8328 0.660706C5.31076 0.660706 0.832764 5.13871 0.832764 10.6607C0.832764 16.1837 5.31076 20.6607 10.8328 20.6607C16.3558 20.6607 20.8328 16.1837 20.8328 10.6607C20.8328 5.13871 16.3558 0.660706 10.8328 0.660706ZM14.5338 14.7377C12.7818 14.8577 8.88076 14.8577 7.13176 14.7377C5.23476 14.6077 5.01376 13.6787 4.99976 10.6607C5.01376 7.63671 5.23676 6.71371 7.13176 6.58371C8.88076 6.46371 12.7828 6.46371 14.5338 6.58371C16.4318 6.71371 16.6518 7.64271 16.6668 10.6607C16.6518 13.6847 16.4288 14.6077 14.5338 14.7377ZM9.16676 8.70871L13.2638 10.6577L9.16676 12.6127V8.70871Z" fill="white"/>
    </g>
    <defs>
    <clipPath id="clip0_0_169">
        <rect width="21" height="20" fill="white" transform="translate(0.499756 0.660706)"/>
    </clipPath>
    </defs>
</svg>