<svg xmlns="http://www.w3.org/2000/svg" width="21" height="21" viewBox="0 0 21 21" fill="none">
    <g clip-path="url(#clip0_0_174)">
    <path d="M10.333 2.46271C13.003 2.46271 13.32 2.47271 14.375 2.52171C17.085 2.64471 18.351 3.93071 18.475 6.62071C18.523 7.67471 18.532 7.99071 18.532 10.6607C18.532 13.3327 18.522 13.6487 18.474 14.7027C18.35 17.3897 17.088 18.6777 14.375 18.8017C13.32 18.8497 13.005 18.8597 10.333 18.8597C7.66298 18.8597 7.34698 18.8497 6.29298 18.8017C3.57598 18.6777 2.31698 17.3857 2.19298 14.7017C2.14498 13.6477 2.13498 13.3317 2.13498 10.6607C2.13498 7.99071 2.14498 7.67471 2.19298 6.62071C2.31698 3.93071 3.57998 2.64371 6.29298 2.52071C7.34698 2.47271 7.66298 2.46271 10.333 2.46271ZM10.333 0.660706C7.61798 0.660706 7.27798 0.672706 6.21098 0.720706C2.57898 0.887706 0.559984 2.90271 0.393984 6.53771C0.344984 7.60471 0.333984 7.94471 0.333984 10.6607C0.333984 13.3767 0.344984 13.7177 0.393984 14.7837C0.559984 18.4157 2.57498 20.4337 6.20998 20.6007C7.27798 20.6487 7.61798 20.6607 10.333 20.6607C13.049 20.6607 13.39 20.6487 14.457 20.6007C18.085 20.4337 20.108 18.4187 20.273 14.7837C20.322 13.7177 20.333 13.3767 20.333 10.6607C20.333 7.94471 20.322 7.60471 20.273 6.53871C20.11 2.90971 18.093 0.888706 14.458 0.720706C13.39 0.670706 13.049 0.660706 10.333 0.660706ZM10.333 5.52571C8.9711 5.52571 7.66499 6.06671 6.70199 7.02971C5.73899 7.99271 5.19798 9.29882 5.19798 10.6607C5.19798 12.0226 5.73899 13.3287 6.70199 14.2917C7.66499 15.2547 8.9711 15.7957 10.333 15.7957C11.6949 15.7957 13.001 15.2547 13.964 14.2917C14.927 13.3287 15.468 12.0226 15.468 10.6607C15.468 9.29882 14.927 7.99271 13.964 7.02971C13.001 6.06671 11.6949 5.52571 10.333 5.52571ZM10.333 13.9937C9.44902 13.9937 8.60126 13.6426 7.9762 13.0175C7.35114 12.3924 6.99998 11.5447 6.99998 10.6607C6.99998 9.77674 7.35114 8.92898 7.9762 8.30392C8.60126 7.67886 9.44902 7.32771 10.333 7.32771C11.217 7.32771 12.0647 7.67886 12.6898 8.30392C13.3148 8.92898 13.666 9.77674 13.666 10.6607C13.666 11.5447 13.3148 12.3924 12.6898 13.0175C12.0647 13.6426 11.217 13.9937 10.333 13.9937ZM15.672 4.12371C15.5144 4.12364 15.3583 4.15461 15.2127 4.21486C15.0671 4.2751 14.9348 4.36344 14.8233 4.47482C14.7118 4.58621 14.6234 4.71846 14.563 4.86402C14.5027 5.00959 14.4716 5.16562 14.4715 5.32321C14.4714 5.48079 14.5024 5.63685 14.5626 5.78246C14.6229 5.92808 14.7112 6.0604 14.8226 6.17188C14.934 6.28336 15.0662 6.3718 15.2118 6.43217C15.3574 6.49254 15.5134 6.52364 15.671 6.52371C15.9892 6.52371 16.2945 6.39728 16.5195 6.17223C16.7446 5.94719 16.871 5.64197 16.871 5.32371C16.871 5.00545 16.7446 4.70022 16.5195 4.47518C16.2945 4.25013 15.9892 4.12371 15.671 4.12371H15.672Z" fill="white"/>
    </g>
    <defs>
    <clipPath id="clip0_0_174">
        <rect width="21" height="20" fill="white" transform="translate(0 0.660706)"/>
    </clipPath>
    </defs>
</svg>