<svg xmlns="http://www.w3.org/2000/svg" width="21" height="21" viewBox="0 0 21 21" fill="none">
    <g clip-path="url(#clip0_0_172)">
    <path d="M10.5002 0.660706C4.97824 0.660706 0.500244 5.13771 0.500244 10.6607C0.500244 14.8977 3.13624 18.5157 6.85624 19.9727C6.76824 19.1817 6.68924 17.9677 6.89124 17.1047C7.07324 16.3247 8.06324 12.1347 8.06324 12.1347C8.06324 12.1347 7.76424 11.5347 7.76424 10.6487C7.76424 9.25871 8.57024 8.22071 9.57424 8.22071C10.4262 8.22071 10.8382 8.86071 10.8382 9.62871C10.8382 10.4867 10.2932 11.7687 10.0102 12.9587C9.77424 13.9537 10.5102 14.7657 11.4902 14.7657C13.2682 14.7657 14.6342 12.8917 14.6342 10.1857C14.6342 7.79271 12.9142 6.11771 10.4572 6.11771C7.61224 6.11771 5.94224 8.25271 5.94224 10.4577C5.94224 11.3167 6.27324 12.2387 6.68724 12.7387C6.72268 12.7766 6.74766 12.8231 6.75976 12.8736C6.77185 12.9241 6.77064 12.9768 6.75624 13.0267L6.47824 14.1597C6.43424 14.3427 6.33324 14.3827 6.14324 14.2937C4.89424 13.7127 4.11324 11.8867 4.11324 10.4197C4.11324 7.26571 6.40524 4.36771 10.7212 4.36771C14.1902 4.36771 16.8862 6.84071 16.8862 10.1437C16.8862 13.5907 14.7132 16.3637 11.6962 16.3637C10.6832 16.3637 9.73124 15.8387 9.40524 15.2157L8.78224 17.5937C8.55624 18.4627 7.94724 19.5517 7.53824 20.2147C8.47524 20.5047 9.46924 20.6607 10.5002 20.6607C16.0222 20.6607 20.5002 16.1837 20.5002 10.6607C20.5002 5.13771 16.0222 0.660706 10.5002 0.660706Z" fill="white"/>
    </g>
    <defs>
    <clipPath id="clip0_0_172">
        <rect width="20" height="20" fill="white" transform="translate(0.500244 0.660706)"/>
    </clipPath>
    </defs>
</svg>