<svg xmlns="http://www.w3.org/2000/svg" width="20" height="17" viewBox="0 0 20 17" fill="none">
    <path d="M20.0005 2.58471C19.2516 2.91668 18.4571 3.13444 17.6435 3.23071C18.5006 2.71833 19.1419 1.91141 19.4475 0.960709C18.6419 1.43877 17.7606 1.77562 16.8415 1.95671C16.4578 1.54698 15.9939 1.2205 15.4787 0.997559C14.9634 0.774614 14.4079 0.659958 13.8465 0.660709C11.1975 0.660709 9.25151 3.13271 9.84951 5.69871C8.21807 5.61707 6.62205 5.19321 5.16507 4.45465C3.7081 3.71608 2.42275 2.67933 1.39251 1.41171C0.868256 2.31518 0.707767 3.38441 0.943678 4.40198C1.17959 5.41956 1.79419 6.30909 2.66251 6.88971C2.01087 6.86979 1.37346 6.69424 0.803512 6.37771C0.758512 8.27871 2.12051 10.0577 4.09351 10.4527C3.48923 10.6168 2.85545 10.6407 2.24051 10.5227C2.50241 11.3383 3.01286 12.0516 3.70037 12.5627C4.38787 13.0737 5.21801 13.357 6.07451 13.3727C4.35468 14.7218 2.16976 15.3332 -0.000488281 15.0727C1.87579 16.2781 4.0594 16.9179 6.28951 16.9157C13.9075 16.9157 18.2115 10.4817 17.9515 4.71071C18.7548 4.12983 19.4483 3.41061 19.9995 2.58671L20.0005 2.58471Z" fill="white"/>
</svg>